<svg xmlns="http://www.w3.org/2000/svg" viewBox="0 0 192 192">
  <rect width="192" height="192" rx="32" fill="#1a1a1a"/>
  <rect x="52" y="36" width="88" height="112" rx="8" fill="white" opacity="0.15"/>
  <rect x="56" y="40" width="80" height="104" rx="6" fill="white"/>
  <rect x="68" y="58" width="56" height="3" rx="1.5" fill="#1a1a1a" opacity="0.6"/>
  <rect x="68" y="68" width="56" height="3" rx="1.5" fill="#1a1a1a" opacity="0.4"/>
  <rect x="68" y="78" width="40" height="3" rx="1.5" fill="#1a1a1a" opacity="0.4"/>
  <rect x="68" y="94" width="56" height="18" rx="3" fill="#1a1a1a" opacity="0.08"/>
  <rect x="68" y="97" width="24" height="2" rx="1" fill="#1a1a1a" opacity="0.5"/>
  <rect x="68" y="102" width="24" height="2" rx="1" fill="#1a1a1a" opacity="0.3"/>
  <rect x="98" y="97" width="20" height="2" rx="1" fill="#1a1a1a" opacity="0.3"/>
  <rect x="98" y="102" width="20" height="2" rx="1" fill="#1a1a1a" opacity="0.3"/>
  <circle cx="137" cy="137" r="28" fill="#1a1a1a"/>
  <path d="M127 137 L135 145 L147 130" stroke="white" stroke-width="3.5" stroke-linecap="round" stroke-linejoin="round" fill="none"/>
</svg>
